<svg width="59" height="185" viewBox="0 0 59 185" fill="none" xmlns="http://www.w3.org/2000/svg">
    <circle opacity="0.3" cx="29.5" cy="155.5" r="29.5" fill="#F36C25" />
    <g opacity="0.3" clip-path="url(#clip0)">
        <path d="M30.6418 38.5919L30.7001 45.3314L26.1996 45.3705L26.1412 38.631L30.6418 38.5919ZM30.7572 52.0728L30.8143 58.8141L26.3137 58.8533L26.2566 52.1119L30.7572 52.0728ZM30.8708 65.5524L30.9278 72.2938L26.4273 72.3329L26.3702 65.5915L30.8708 65.5524ZM30.9862 79.0333L31.0433 85.7746L26.5427 85.8138L26.4857 79.0724L30.9862 79.0333ZM31.0998 92.5129L31.1581 99.2524L26.6576 99.2915L26.5992 92.552L31.0998 92.5129ZM31.2146 105.991L31.2717 112.732L26.7711 112.771L26.7141 106.03L31.2146 105.991ZM31.33 119.472L31.3871 126.213L26.8866 126.252L26.8295 119.511L31.33 119.472ZM31.4455 132.952L31.5025 139.694L27.002 139.733L26.9449 132.992L31.4455 132.952ZM31.559 146.432L31.6161 153.173L27.1156 153.213L27.0585 146.471L31.559 146.432ZM31.6745 159.913L31.7315 166.654L27.231 166.693L27.1739 159.952L31.6745 159.913Z" fill="black" />
        <path d="M43.7425 150.412C43.7536 150.419 43.7628 150.426 43.774 150.433C44.7858 151.152 45.0234 152.556 44.303 153.567L34.0392 167.978C32.9335 169.529 31.316 170.431 29.5995 170.45C27.8818 170.472 26.2455 169.605 25.1067 168.079L14.4827 153.844C13.7401 152.849 13.9469 151.442 14.9418 150.698C15.9366 149.955 17.3441 150.163 18.0911 151.155L28.7151 165.391C28.9857 165.751 29.291 165.958 29.5513 165.956C29.8128 165.953 30.1117 165.741 30.3735 165.373L40.6373 150.961C41.3481 149.96 42.7321 149.718 43.7425 150.412Z" fill="black" />
    </g>
    <defs>
        <clipPath id="clip0">
            <rect width="36" height="173" fill="white" transform="translate(46 173) rotate(-180)" />
        </clipPath>
    </defs>
</svg>
